<svg width="48" height="48" viewBox="0 0 48 48" fill="none" xmlns="http://www.w3.org/2000/svg">
<rect width="48" height="48" fill="white"/>
<path d="M26.5 42C26.5 42.3212 26.3545 42.7526 25.8322 43.2818C25.3035 43.8175 24.4642 44.3687 23.3086 44.8639C21.0028 45.8521 17.7127 46.5 14 46.5C10.2873 46.5 6.99723 45.8521 4.69138 44.8639C3.53579 44.3687 2.69646 43.8175 2.16781 43.2818C1.64553 42.7526 1.5 42.3212 1.5 42C1.5 41.6788 1.64553 41.2474 2.16781 40.7182C2.69646 40.1825 3.53579 39.6313 4.69138 39.1361C6.99723 38.1479 10.2873 37.5 14 37.5C17.7127 37.5 21.0028 38.1479 23.3086 39.1361C24.4642 39.6313 25.3035 40.1825 25.8322 40.7182C26.3545 41.2474 26.5 41.6788 26.5 42Z" stroke="#152C5B" stroke-width="3"/>
<path d="M26.5 13.7143C26.5 17.2355 25.0035 23.9772 22.5176 29.8639C21.2802 32.7944 19.8399 35.409 18.2963 37.2642C16.7183 39.161 15.2593 40 14 40C12.7407 40 11.2817 39.161 9.70366 37.2642C8.16014 35.409 6.71981 32.7944 5.48235 29.8639C2.99652 23.9772 1.5 17.2355 1.5 13.7143C1.5 6.99753 7.06713 1.5 14 1.5C20.9329 1.5 26.5 6.99753 26.5 13.7143Z" fill="white" stroke="#152C5B" stroke-width="3"/>
<path d="M18.5 14C18.5 16.4853 16.4853 18.5 14 18.5C11.5147 18.5 9.5 16.4853 9.5 14C9.5 11.5147 11.5147 9.5 14 9.5C16.4853 9.5 18.5 11.5147 18.5 14Z" stroke="#FF498B" stroke-width="3"/>
</svg>
