<svg width="48" height="48" viewBox="0 0 48 48" fill="none" xmlns="http://www.w3.org/2000/svg">
<mask id="path-1-inside-1_15_722" fill="white">
<path d="M36 -1.74846e-07C38.2091 -7.8281e-08 40 1.79086 40 4L40 44C40 46.2091 38.2091 48 36 48L20 48C18.8954 48 18 47.1046 18 46L18 2C18 0.89543 18.8954 -9.2251e-07 20 -8.74228e-07L36 -1.74846e-07Z"/>
</mask>
<path d="M36 -1.74846e-07C38.2091 -7.8281e-08 40 1.79086 40 4L40 44C40 46.2091 38.2091 48 36 48L20 48C18.8954 48 18 47.1046 18 46L18 2C18 0.89543 18.8954 -9.2251e-07 20 -8.74228e-07L36 -1.74846e-07Z" stroke="#152C5B" stroke-width="6" mask="url(#path-1-inside-1_15_722)"/>
<mask id="path-2-inside-2_15_722" fill="white">
<path d="M14 1.74846e-07C11.7909 7.8281e-08 10 1.79086 10 4L10 44C10 46.2091 11.7909 48 14 48L19 48C20.1046 48 21 47.1046 21 46L21 2C21 0.895432 20.1046 4.41685e-07 19 3.93403e-07L14 1.74846e-07Z"/>
</mask>
<path d="M14 1.74846e-07C11.7909 7.8281e-08 10 1.79086 10 4L10 44C10 46.2091 11.7909 48 14 48L19 48C20.1046 48 21 47.1046 21 46L21 2C21 0.895432 20.1046 4.41685e-07 19 3.93403e-07L14 1.74846e-07Z" stroke="#152C5B" stroke-width="6" mask="url(#path-2-inside-2_15_722)"/>
<path d="M33 20L33 28" stroke="#FF498B" stroke-width="3" stroke-linecap="round"/>
</svg>
