<svg width="48" height="48" viewBox="0 0 48 48" fill="none" xmlns="http://www.w3.org/2000/svg">
<rect width="48" height="48" fill="white"/>
<mask id="path-1-inside-1_3_81" fill="white">
<path fill-rule="evenodd" clip-rule="evenodd" d="M19.6267 10C18.952 10 18.3228 10.3402 17.9533 10.9047L15.2727 15H10C4.47715 15 0 19.4772 0 25V35C0 40.5228 4.47715 45 10 45H38C43.5228 45 48 40.5228 48 35V25C48 19.4772 43.5229 15 38 15H33.2727L31.114 11.0423C30.7635 10.3998 30.0901 10 29.3582 10H19.6267Z"/>
</mask>
<path d="M17.9533 10.9047L20.4634 12.5477V12.5477L17.9533 10.9047ZM15.2727 15V18H16.8946L17.7828 16.643L15.2727 15ZM33.2727 15L30.639 16.4366L31.4918 18H33.2727V15ZM31.114 11.0423L28.4803 12.4789L28.4803 12.4789L31.114 11.0423ZM20.4634 12.5477C20.2787 12.8299 19.964 13 19.6267 13V7C17.94 7 16.3669 7.85042 15.4432 9.26171L20.4634 12.5477ZM17.7828 16.643L20.4634 12.5477L15.4432 9.2617L12.7626 13.357L17.7828 16.643ZM10 18H15.2727V12H10V18ZM3 25C3 21.134 6.13401 18 10 18V12C2.8203 12 -3 17.8203 -3 25H3ZM3 35V25H-3V35H3ZM10 42C6.13401 42 3 38.866 3 35H-3C-3 42.1797 2.8203 48 10 48V42ZM38 42H10V48H38V42ZM45 35C45 38.866 41.866 42 38 42V48C45.1797 48 51 42.1797 51 35H45ZM45 25V35H51V25H45ZM38 18C41.866 18 45 21.134 45 25H51C51 17.8203 45.1797 12 38 12V18ZM33.2727 18H38V12H33.2727V18ZM28.4803 12.4789L30.639 16.4366L35.9064 13.5634L33.7477 9.60574L28.4803 12.4789ZM29.3582 13C28.9922 13 28.6555 12.8001 28.4803 12.4789L33.7477 9.60574C32.8715 7.99943 31.1879 7 29.3582 7V13ZM19.6267 13H29.3582V7H19.6267V13Z" fill="#152C5B" mask="url(#path-1-inside-1_3_81)"/>
<path d="M30.5 29C30.5 32.5899 27.5899 35.5 24 35.5C20.4101 35.5 17.5 32.5899 17.5 29C17.5 25.4101 20.4101 22.5 24 22.5C27.5899 22.5 30.5 25.4101 30.5 29Z" stroke="#FF498B" stroke-width="3"/>
<path d="M34 22L39 22" stroke="#FF498B" stroke-width="3" stroke-linecap="round"/>
</svg>
