<svg width="48" height="48" viewBox="0 0 48 48" fill="none" xmlns="http://www.w3.org/2000/svg">
<path d="M12.5 18C12.5 16.6193 13.6193 15.5 15 15.5H19C20.3807 15.5 21.5 16.6193 21.5 18V24.5H12.5V18Z" stroke="#FF498B" stroke-width="3"/>
<path d="M26.5 18C26.5 16.6193 27.6193 15.5 29 15.5H33C34.3807 15.5 35.5 16.6193 35.5 18V24.5H26.5V18Z" stroke="#FF498B" stroke-width="3"/>
<path d="M7.5 11C7.5 6.30558 11.3056 2.5 16 2.5H32C36.6944 2.5 40.5 6.30558 40.5 11V24.5H7.5V11Z" stroke="#152C5B" stroke-width="3"/>
<mask id="path-4-inside-1_13_624" fill="white">
<path d="M0 28C0 25.7909 1.79086 24 4 24H44C46.2091 24 48 25.7909 48 28V36C48 37.1046 47.1046 38 46 38H2C0.895431 38 0 37.1046 0 36V28Z"/>
</mask>
<path d="M0 28C0 25.7909 1.79086 24 4 24H44C46.2091 24 48 25.7909 48 28V36C48 37.1046 47.1046 38 46 38H2C0.895431 38 0 37.1046 0 36V28Z" stroke="#152C5B" stroke-width="6" mask="url(#path-4-inside-1_13_624)"/>
<path d="M6 38V46" stroke="#152C5B" stroke-width="3" stroke-linecap="round"/>
<path d="M42 38V46" stroke="#152C5B" stroke-width="3" stroke-linecap="round"/>
<path d="M6 42L42 42" stroke="#152C5B" stroke-width="3" stroke-linecap="round"/>
</svg>
