<svg width="48" height="48" viewBox="0 0 48 48" fill="none" xmlns="http://www.w3.org/2000/svg">
<path d="M34.5 27.5H39.5V41C39.5 42.3807 38.3807 43.5 37 43.5C35.6193 43.5 34.5 42.3807 34.5 41V27.5Z" stroke="#152C5B" stroke-width="3"/>
<path d="M9.5 27.5H14.5V41C14.5 42.3807 13.3807 43.5 12 43.5C10.6193 43.5 9.5 42.3807 9.5 41V27.5Z" stroke="#152C5B" stroke-width="3"/>
<path d="M8.10604 18.6898C8.56103 17.9504 9.36703 17.5 10.2352 17.5H38.8893C39.8271 17.5 40.6859 18.0248 41.1139 18.8592L42.4486 18.1747L41.1139 18.8592L43.678 23.8592C44.5311 25.5228 43.323 27.5 41.4534 27.5H7.15826C5.20246 27.5 4.00408 25.3554 5.02911 23.6898L8.10604 18.6898Z" stroke="#152C5B" stroke-width="3"/>
<path d="M18 11V16" stroke="#152C5B" stroke-width="3" stroke-linecap="round"/>
<path d="M30 11V16" stroke="#152C5B" stroke-width="3" stroke-linecap="round"/>
<path d="M15.5 8C15.5 9.38071 16.6193 10.5 18 10.5C19.3807 10.5 20.5 9.38071 20.5 8V3.5H15.5V8Z" stroke="#FF498B" stroke-width="3"/>
<path d="M27.5 8C27.5 9.38071 28.6193 10.5 30 10.5C31.3807 10.5 32.5 9.38071 32.5 8V3.5H27.5V8Z" stroke="#FF498B" stroke-width="3"/>
</svg>
