<svg width="30" height="29" viewBox="0 0 30 29" fill="none" xmlns="http://www.w3.org/2000/svg">
<path d="M14.0489 1.67766C14.3483 0.756349 15.6517 0.75635 15.9511 1.67766L18.6484 9.97908C18.7822 10.3911 19.1662 10.6701 19.5994 10.6701H28.328C29.2968 10.6701 29.6995 11.9097 28.9158 12.4791L21.8542 17.6096C21.5037 17.8643 21.3571 18.3157 21.4909 18.7277L24.1882 27.0291C24.4876 27.9504 23.4331 28.7165 22.6494 28.1471L15.5878 23.0166C15.2373 22.7619 14.7627 22.7619 14.4122 23.0166L7.3506 28.1471C6.56689 28.7165 5.51241 27.9504 5.81176 27.0291L8.50906 18.7277C8.64293 18.3157 8.49627 17.8643 8.14578 17.6096L1.08417 12.4791C0.300458 11.9097 0.703234 10.6701 1.67196 10.6701H10.4006C10.8338 10.6701 11.2178 10.3911 11.3516 9.97908L14.0489 1.67766Z" fill="#FFD361"/>
</svg>
