<svg width="48" height="48" viewBox="0 0 48 48" fill="none" xmlns="http://www.w3.org/2000/svg">
<path d="M16 28C17.9001 25.5574 20.7783 24 24 24C27.2217 24 30.0999 25.5574 32 28" stroke="#152C5B" stroke-width="3" stroke-linecap="round"/>
<path d="M12 21C14.8502 17.336 19.1675 15 24 15C28.8325 15 33.1498 17.336 36 21" stroke="#152C5B" stroke-width="3" stroke-linecap="round"/>
<path d="M8 15C11.8002 10.1147 17.5566 7 24 7C30.4434 7 36.1998 10.1147 40 15" stroke="#152C5B" stroke-width="3" stroke-linecap="round"/>
<path d="M28.5 36C28.5 38.4853 26.4853 40.5 24 40.5C21.5147 40.5 19.5 38.4853 19.5 36C19.5 33.5147 21.5147 31.5 24 31.5C26.4853 31.5 28.5 33.5147 28.5 36Z" stroke="#FF498B" stroke-width="3"/>
</svg>
